# xmcd
#
# Track frame offsets:
#	150
#	2557
#	17235
#	34618
#	49203
#	61574
#	73092
#	92231
#	103227
#	118687
#	127889
#	144369
#	153222
#	167691
#	179658
#	196680
#	201086
#	225692
#
# Disc length: 3343 seconds
#
# Revision: 0
# Processed by: cddbd v1.5.2PL0 Copyright (c) Steve Scherf et al.
# Submitted via: EasyCDDAExtractor 10.0.6.1
#
DISCID=ec0d0d12
DTITLE=DE PHAZZ - DAYS OF TWANG
DYEAR=2007
DGENRE=Acid Jazz
TTITLE0=Twang
TTITLE1=Boogie Philosophy
TTITLE2=Nonsensical Thing
TTITLE3=Hell Alright
TTITLE4=Better World
TTITLE5=Le Petit Bastard
TTITLE6=It Will Turn Out Right
TTITLE7=Devil's Music
TTITLE8=Dancing With My Hands
TTITLE9=How High The Hat
TTITLE10=My Society
TTITLE11=Rock'n'Roll Dude
TTITLE12=Shadow Of A Lie
TTITLE13=What's The Use Of...?
TTITLE14=105 FM JAM
TTITLE15=Devil's Music #58 Reprise
TTITLE16=How High The Hat (monophonic RMX)
TTITLE17=Hell Alright (franksen and bassface sascha RMX)
EXTD=
EXTT0=
EXTT1=
EXTT2=
EXTT3=
EXTT4=
EXTT5=
EXTT6=
EXTT7=
EXTT8=
EXTT9=
EXTT10=
EXTT11=
EXTT12=
EXTT13=
EXTT14=
EXTT15=
EXTT16=
EXTT17=
PLAYORDER=
